<svg width="92" height="102" viewBox="0 0 92 102" fill="none" xmlns="http://www.w3.org/2000/svg">
<g opacity="0.5">
<rect width="1.50739" height="1.50739" fill="#404852"/>
<rect x="10.0493" width="1.50739" height="1.50739" fill="#404852"/>
<rect x="20.0985" width="1.50739" height="1.50739" fill="#404852"/>
<rect x="30.1478" width="1.50739" height="1.50739" fill="#404852"/>
<rect x="40.197" width="1.50739" height="1.50739" fill="#404852"/>
<rect x="50.2463" width="1.50739" height="1.50739" fill="#404852"/>
<rect x="60.2956" width="1.50739" height="1.50739" fill="#404852"/>
<rect x="70.3448" width="1.50739" height="1.50739" fill="#404852"/>
<rect x="80.3941" width="1.50739" height="1.50739" fill="#404852"/>
<rect x="90.4433" width="1.50739" height="1.50739" fill="#404852"/>
<rect y="10.0493" width="1.50739" height="1.50739" fill="#404852"/>
<rect x="10.0493" y="10.0493" width="1.50739" height="1.50739" fill="#404852"/>
<rect x="20.0985" y="10.0493" width="1.50739" height="1.50739" fill="#404852"/>
<rect x="30.1478" y="10.0493" width="1.50739" height="1.50739" fill="#404852"/>
<rect x="40.197" y="10.0493" width="1.50739" height="1.50739" fill="#404852"/>
<rect x="50.2463" y="10.0493" width="1.50739" height="1.50739" fill="#404852"/>
<rect x="60.2956" y="10.0493" width="1.50739" height="1.50739" fill="#404852"/>
<rect x="70.3448" y="10.0493" width="1.50739" height="1.50739" fill="#404852"/>
<rect x="80.3941" y="10.0493" width="1.50739" height="1.50739" fill="#404852"/>
<rect x="90.4433" y="10.0493" width="1.50739" height="1.50739" fill="#404852"/>
<rect y="20.0985" width="1.50739" height="1.50739" fill="#404852"/>
<rect x="10.0493" y="20.0985" width="1.50739" height="1.50739" fill="#404852"/>
<rect x="20.0985" y="20.0985" width="1.50739" height="1.50739" fill="#404852"/>
<rect x="30.1478" y="20.0985" width="1.50739" height="1.50739" fill="#404852"/>
<rect x="40.197" y="20.0985" width="1.50739" height="1.50739" fill="#404852"/>
<rect x="50.2463" y="20.0985" width="1.50739" height="1.50739" fill="#404852"/>
<rect x="60.2956" y="20.0985" width="1.50739" height="1.50739" fill="#404852"/>
<rect x="70.3448" y="20.0985" width="1.50739" height="1.50739" fill="#404852"/>
<rect x="80.3941" y="20.0985" width="1.50739" height="1.50739" fill="#404852"/>
<rect x="90.4433" y="20.0985" width="1.50739" height="1.50739" fill="#404852"/>
<rect y="30.1478" width="1.50739" height="1.50739" fill="#404852"/>
<rect x="10.0493" y="30.1478" width="1.50739" height="1.50739" fill="#404852"/>
<rect x="20.0985" y="30.1478" width="1.50739" height="1.50739" fill="#404852"/>
<rect x="30.1478" y="30.1478" width="1.50739" height="1.50739" fill="#404852"/>
<rect x="40.197" y="30.1478" width="1.50739" height="1.50739" fill="#404852"/>
<rect x="50.2463" y="30.1478" width="1.50739" height="1.50739" fill="#404852"/>
<rect x="60.2956" y="30.1478" width="1.50739" height="1.50739" fill="#404852"/>
<rect x="70.3448" y="30.1478" width="1.50739" height="1.50739" fill="#404852"/>
<rect x="80.3941" y="30.1478" width="1.50739" height="1.50739" fill="#404852"/>
<rect x="90.4433" y="30.1478" width="1.50739" height="1.50739" fill="#404852"/>
<rect y="40.197" width="1.50739" height="1.50739" fill="#404852"/>
<rect x="10.0493" y="40.197" width="1.50739" height="1.50739" fill="#404852"/>
<rect x="20.0985" y="40.197" width="1.50739" height="1.50739" fill="#404852"/>
<rect x="30.1478" y="40.197" width="1.50739" height="1.50739" fill="#404852"/>
<rect x="40.197" y="40.197" width="1.50739" height="1.50739" fill="#404852"/>
<rect x="50.2463" y="40.197" width="1.50739" height="1.50739" fill="#404852"/>
<rect x="60.2956" y="40.197" width="1.50739" height="1.50739" fill="#404852"/>
<rect x="70.3448" y="40.197" width="1.50739" height="1.50739" fill="#404852"/>
<rect x="80.3941" y="40.197" width="1.50739" height="1.50739" fill="#404852"/>
<rect x="90.4433" y="40.197" width="1.50739" height="1.50739" fill="#404852"/>
<rect y="50.2463" width="1.50739" height="1.50739" fill="#404852"/>
<rect x="10.0493" y="50.2463" width="1.50739" height="1.50739" fill="#404852"/>
<rect x="20.0985" y="50.2463" width="1.50739" height="1.50739" fill="#404852"/>
<rect x="30.1478" y="50.2463" width="1.50739" height="1.50739" fill="#404852"/>
<rect x="40.197" y="50.2463" width="1.50739" height="1.50739" fill="#404852"/>
<rect x="50.2463" y="50.2463" width="1.50739" height="1.50739" fill="#404852"/>
<rect x="60.2956" y="50.2463" width="1.50739" height="1.50739" fill="#404852"/>
<rect x="70.3448" y="50.2463" width="1.50739" height="1.50739" fill="#404852"/>
<rect x="80.3941" y="50.2463" width="1.50739" height="1.50739" fill="#404852"/>
<rect x="90.4433" y="50.2463" width="1.50739" height="1.50739" fill="#404852"/>
<rect y="60.2956" width="1.50739" height="1.50739" fill="#404852"/>
<rect x="10.0493" y="60.2956" width="1.50739" height="1.50739" fill="#404852"/>
<rect x="20.0985" y="60.2956" width="1.50739" height="1.50739" fill="#404852"/>
<rect x="30.1478" y="60.2956" width="1.50739" height="1.50739" fill="#404852"/>
<rect x="40.197" y="60.2956" width="1.50739" height="1.50739" fill="#404852"/>
<rect x="50.2463" y="60.2956" width="1.50739" height="1.50739" fill="#404852"/>
<rect x="60.2956" y="60.2956" width="1.50739" height="1.50739" fill="#404852"/>
<rect x="70.3448" y="60.2956" width="1.50739" height="1.50739" fill="#404852"/>
<rect x="80.3941" y="60.2956" width="1.50739" height="1.50739" fill="#404852"/>
<rect x="90.4433" y="60.2956" width="1.50739" height="1.50739" fill="#404852"/>
<rect y="70.3448" width="1.50739" height="1.50739" fill="#404852"/>
<rect x="10.0493" y="70.3448" width="1.50739" height="1.50739" fill="#404852"/>
<rect x="20.0985" y="70.3448" width="1.50739" height="1.50739" fill="#404852"/>
<rect x="30.1478" y="70.3448" width="1.50739" height="1.50739" fill="#404852"/>
<rect x="40.197" y="70.3448" width="1.50739" height="1.50739" fill="#404852"/>
<rect x="50.2463" y="70.3448" width="1.50739" height="1.50739" fill="#404852"/>
<rect x="60.2956" y="70.3448" width="1.50739" height="1.50739" fill="#404852"/>
<rect x="70.3448" y="70.3448" width="1.50739" height="1.50739" fill="#404852"/>
<rect x="80.3941" y="70.3448" width="1.50739" height="1.50739" fill="#404852"/>
<rect x="90.4433" y="70.3448" width="1.50739" height="1.50739" fill="#404852"/>
<rect y="80.3941" width="1.50739" height="1.50739" fill="#404852"/>
<rect x="10.0493" y="80.3941" width="1.50739" height="1.50739" fill="#404852"/>
<rect x="20.0985" y="80.3941" width="1.50739" height="1.50739" fill="#404852"/>
<rect x="30.1478" y="80.3941" width="1.50739" height="1.50739" fill="#404852"/>
<rect x="40.197" y="80.3941" width="1.50739" height="1.50739" fill="#404852"/>
<rect x="50.2463" y="80.3941" width="1.50739" height="1.50739" fill="#404852"/>
<rect x="60.2956" y="80.3941" width="1.50739" height="1.50739" fill="#404852"/>
<rect x="70.3448" y="80.3941" width="1.50739" height="1.50739" fill="#404852"/>
<rect x="80.3941" y="80.3941" width="1.50739" height="1.50739" fill="#404852"/>
<rect x="90.4433" y="80.3941" width="1.50739" height="1.50739" fill="#404852"/>
<rect y="90.4433" width="1.50739" height="1.50739" fill="#404852"/>
<rect x="10.0493" y="90.4433" width="1.50739" height="1.50739" fill="#404852"/>
<rect x="20.0985" y="90.4433" width="1.50739" height="1.50739" fill="#404852"/>
<rect x="30.1478" y="90.4433" width="1.50739" height="1.50739" fill="#404852"/>
<rect x="40.197" y="90.4433" width="1.50739" height="1.50739" fill="#404852"/>
<rect x="50.2463" y="90.4433" width="1.50739" height="1.50739" fill="#404852"/>
<rect x="60.2956" y="90.4433" width="1.50739" height="1.50739" fill="#404852"/>
<rect x="70.3448" y="90.4433" width="1.50739" height="1.50739" fill="#404852"/>
<rect x="80.3941" y="90.4433" width="1.50739" height="1.50739" fill="#404852"/>
<rect x="90.4433" y="90.4433" width="1.50739" height="1.50739" fill="#404852"/>
<rect y="100.493" width="1.50739" height="1.50739" fill="#404852"/>
<rect x="10.0493" y="100.493" width="1.50739" height="1.50739" fill="#404852"/>
<rect x="20.0985" y="100.493" width="1.50739" height="1.50739" fill="#404852"/>
<rect x="30.1478" y="100.493" width="1.50739" height="1.50739" fill="#404852"/>
<rect x="40.197" y="100.493" width="1.50739" height="1.50739" fill="#404852"/>
<rect x="50.2463" y="100.493" width="1.50739" height="1.50739" fill="#404852"/>
<rect x="60.2956" y="100.493" width="1.50739" height="1.50739" fill="#404852"/>
<rect x="70.3448" y="100.493" width="1.50739" height="1.50739" fill="#404852"/>
<rect x="80.3941" y="100.493" width="1.50739" height="1.50739" fill="#404852"/>
<rect x="90.4433" y="100.493" width="1.50739" height="1.50739" fill="#404852"/>
</g>
</svg>
