<svg width="31" height="38" viewBox="0 0 31 38" fill="none" xmlns="http://www.w3.org/2000/svg">
<path d="M25.6087 2.02174H5.39131C3.53035 2.02174 2.02174 3.53035 2.02174 5.39131V32.3478C2.02174 34.2088 3.53035 35.7174 5.39131 35.7174H25.6087C27.4697 35.7174 28.9783 34.2088 28.9783 32.3478V5.39131C28.9783 3.53035 27.4697 2.02174 25.6087 2.02174Z" stroke="white" stroke-width="4" stroke-linecap="round" stroke-linejoin="round"/>
<path d="M15.4998 28.9783C19.2218 28.9783 22.239 25.9611 22.239 22.2391C22.239 18.5172 19.2218 15.5 15.4998 15.5C11.7779 15.5 8.76071 18.5172 8.76071 22.2391C8.76071 25.9611 11.7779 28.9783 15.4998 28.9783Z" stroke="white" stroke-width="4" stroke-linecap="round" stroke-linejoin="round"/>
<path d="M15.4999 8.76088H15.5168" stroke="white" stroke-width="4" stroke-linecap="round" stroke-linejoin="round"/>
</svg>
