<svg width="30" height="30" viewBox="0 0 30 30" fill="none" xmlns="http://www.w3.org/2000/svg">
<g clip-path="url(#clip0_1_135)">
<path d="M27.7024 7.07C26.7481 7.49212 25.7361 7.76934 24.6999 7.8925C25.7921 7.23929 26.6095 6.21127 26.9999 5C25.9749 5.61 24.8511 6.0375 23.6799 6.26875C22.8931 5.42697 21.8503 4.8687 20.7136 4.68073C19.5768 4.49276 18.4098 4.68561 17.394 5.22932C16.3781 5.77302 15.5704 6.6371 15.0963 7.68724C14.6222 8.73738 14.5083 9.91472 14.7724 11.0363C12.6938 10.9321 10.6603 10.3919 8.80399 9.45083C6.94768 8.50976 5.31004 7.18881 3.99738 5.57375C3.53275 6.37181 3.28858 7.27903 3.28988 8.2025C3.28988 10.015 4.21238 11.6163 5.61488 12.5538C4.78489 12.5276 3.97317 12.3035 3.24738 11.9V11.965C3.24763 13.1721 3.66534 14.342 4.42969 15.2763C5.19404 16.2106 6.25798 16.8518 7.44113 17.0913C6.67065 17.3 5.86277 17.3308 5.07863 17.1812C5.41222 18.2203 6.06239 19.129 6.93812 19.7801C7.81385 20.4313 8.87129 20.7922 9.96238 20.8125C8.87798 21.6642 7.63635 22.2937 6.30848 22.6652C4.98061 23.0367 3.59254 23.1428 2.22363 22.9775C4.61325 24.5143 7.395 25.3302 10.2361 25.3275C19.8524 25.3275 25.1111 17.3612 25.1111 10.4525C25.1111 10.2275 25.1049 10 25.0949 9.7775C26.1185 9.03771 27.0019 8.12127 27.7036 7.07125L27.7024 7.07Z" fill="white"/>
</g>
<defs>
<clipPath id="clip0_1_135">
<rect width="30" height="30" fill="white"/>
</clipPath>
</defs>
</svg>
