<svg width="34" height="34" viewBox="0 0 34 34" fill="none" xmlns="http://www.w3.org/2000/svg">
<path d="M12 27V5.33335L32 2.00001V23.6667" stroke="white" stroke-width="4" stroke-linecap="round" stroke-linejoin="round"/>
<path d="M7 32C9.76142 32 12 29.7614 12 27C12 24.2386 9.76142 22 7 22C4.23857 22 2 24.2386 2 27C2 29.7614 4.23857 32 7 32Z" stroke="white" stroke-width="4" stroke-linecap="round" stroke-linejoin="round"/>
<path d="M27 28.6667C29.7614 28.6667 32 26.4281 32 23.6667C32 20.9053 29.7614 18.6667 27 18.6667C24.2386 18.6667 22 20.9053 22 23.6667C22 26.4281 24.2386 28.6667 27 28.6667Z" stroke="white" stroke-width="4" stroke-linecap="round" stroke-linejoin="round"/>
</svg>
